<?xml version="1.0" encoding="UTF-8" standalone="no"?>
<svg width="30px" height="20px" viewBox="0 0 30 20" version="1.1" xmlns="http://www.w3.org/2000/svg" xmlns:xlink="http://www.w3.org/1999/xlink" xmlns:sketch="http://www.bohemiancoding.com/sketch/ns">
    <title>quotes</title>
    <description>Created with Sketch (http://www.bohemiancoding.com/sketch)</description>
    <defs></defs>
    <g id="Page-3" stroke="none" stroke-width="1" fill="none" fill-rule="evenodd" sketch:type="MSPage">
        <path d="M13.16,17.7999014 C15.08,17.7999014 16.88,16.1199014 16.88,13.9599014 C16.88,12.3399014 15.74,10.9599014 14.18,10.9599014 C13.88,10.9599014 13.52,10.9599014 13.34,11.0199014 C14,6.63990143 17.18,4.05990143 17.84,3.45990143 C18.38,2.91990143 18.74,2.55990143 18.32,2.01990143 L17.66,1.17990143 C17.36,0.819901428 16.94,0.759901428 16.34,1.29990143 C14.24,3.27990143 10.1,8.13990143 10.1,13.7199014 C10.1,16.8999014 11.66,17.7999014 13.16,17.7999014 Z M3.2,17.7999014 C5.12,17.7999014 6.92,16.1199014 6.92,13.9599014 C6.92,12.3399014 5.78,10.9599014 4.22,10.9599014 C3.92,10.9599014 3.56,10.9599014 3.38,11.0199014 C4.04,6.63990143 7.22,4.05990143 7.88,3.45990143 C8.42,2.91990143 8.78,2.55990143 8.36,2.01990143 L7.7,1.17990143 C7.4,0.819901428 6.98,0.759901428 6.38,1.29990143 C4.28,3.27990143 0.14,8.13990143 0.14,13.7199014 C0.14,16.8999014 1.7,17.7999014 3.2,17.7999014 Z" id="Text" fill="#EE3739" sketch:type="MSShapeGroup"></path>
    </g>
</svg>