<?xml version="1.0" encoding="UTF-8" standalone="no"?>
<svg width="623px" height="456px" viewBox="0 0 623 456" version="1.1" xmlns="http://www.w3.org/2000/svg" xmlns:xlink="http://www.w3.org/1999/xlink" xmlns:sketch="http://www.bohemiancoding.com/sketch/ns">
    <title>rutter-logo</title>
    <description>Created with Sketch (http://www.bohemiancoding.com/sketch)</description>
    <defs></defs>
    <g id="Page-1" stroke="none" stroke-width="1" fill="none" fill-rule="evenodd" sketch:type="MSPage">
        <g id="Rutter_logo" sketch:type="MSLayerGroup" transform="translate(-86.000000, -78.000000)">
            <path d="M357.887,207.133 L437.051,207.133 L437.051,284.893 L357.887,284.893 L357.887,207.133 Z" id="Fill-1" fill="#EE3739" sketch:type="MSShapeGroup"></path>
            <path d="M357.711,190.975 L554.696,190.975 C532.039,125.835 469.983,78.877 397.293,78.877 C387.389,78.877 377.68,79.757 368.238,81.428 C368.003,81.476 367.762,81.519 367.524,81.561 C367.494,81.561 367.47,81.569 367.44,81.573 C367.236,81.611 367.029,81.653 366.821,81.693 C366.505,81.75 366.186,81.815 365.862,81.878 C363.119,82.411 360.408,83.007 357.711,83.672 L357.711,190.975" id="Fill-2" fill="#00A3DB" sketch:type="MSShapeGroup"></path>
            <path d="M559.486,207.417 L452.478,207.417 L452.478,402.629 C517.257,379.781 563.887,317.904 563.887,245.471 C563.887,232.386 562.363,219.648 559.486,207.417" id="Fill-3" fill="#00A3DB" sketch:type="MSShapeGroup"></path>
            <path d="M436.765,300.134 L239.946,300.134 C258.831,354.231 304.916,395.758 361.674,408.205 C372.957,410.567 384.635,411.828 396.6,411.828 C410.427,411.828 423.875,410.144 436.765,407.014 L436.765,300.134" id="Fill-4" fill="#00A3DB" sketch:type="MSShapeGroup"></path>
            <path d="M342.03,285.164 L342.03,88.356 C277.48,111.311 231.048,173.052 231.048,245.31 C231.048,259.041 232.74,272.386 235.901,285.164 L342.03,285.164" id="Fill-5" fill="#00A3DB" sketch:type="MSShapeGroup"></path>
            <path d="M196.361,490.951 L196.361,442.606 L239.482,442.606 L239.482,490.951 C239.482,496.833 240.137,500.75 242.097,502.714 C243.404,504.677 246.67,505.98 251.239,505.98 C255.815,505.98 258.43,504.677 260.387,502.714 C262.349,500.75 263.003,496.833 263.003,490.951 L263.003,442.606 L306.118,442.606 L306.118,490.951 C306.118,497.483 305.466,502.714 304.814,506.632 C303.509,510.55 301.547,513.817 298.933,517.081 C294.36,522.313 287.827,526.882 279.336,529.496 C271.494,532.111 261.694,533.414 251.239,533.414 C240.137,533.414 230.99,532.111 223.15,529.496 C214.657,526.882 208.124,522.313 203.55,517.081 C200.936,513.817 198.976,510.55 198.323,506.632 C197.017,502.714 196.361,497.483 196.361,490.951" id="Fill-6" fill="#1A1918" sketch:type="MSShapeGroup"></path>
            <path d="M337.48,531.46 L337.48,472.004 L313.957,472.004 L313.957,442.606 L402.808,442.606 L402.808,472.004 L380.598,472.004 L380.598,531.46 L337.48,531.46" id="Fill-7" fill="#1A1918" sketch:type="MSShapeGroup"></path>
            <path d="M432.639,531.46 L432.639,472.004 L409.773,472.004 L409.773,442.606 L499.276,442.606 L499.276,472.004 L475.752,472.004 L475.752,531.46 L432.639,531.46" id="Fill-8" fill="#1A1918" sketch:type="MSShapeGroup"></path>
            <path d="M507.99,531.46 L507.99,442.606 L587.693,442.606 L587.693,466.783 L550.458,466.783 L550.458,475.278 L584.428,475.278 L584.428,498.143 L550.458,498.143 L550.458,507.283 L589,507.283 L589,531.46 L507.99,531.46" id="Fill-9" fill="#1A1918" sketch:type="MSShapeGroup"></path>
            <path d="M655.657,481.152 C653.733,482.379 651.926,483.056 645.857,483.114 L639.326,483.114 L639.326,465.479 L645.857,465.479 C650.35,465.453 653.163,465.87 655.541,467.709 C657.405,469.152 658.927,471.352 658.927,474.619 C658.927,477.234 657.794,479.557 655.657,481.152 L655.657,481.152 Z M676.564,495.529 C683.099,494.217 688.979,492.264 692.896,488.336 C697.47,484.417 699.428,479.197 699.428,472.664 C699.428,462.865 695.511,455.672 687.02,450.451 C679.181,445.22 666.765,442.606 651.084,442.606 L598.171,442.606 L598.171,531.46 L639.326,531.46 L639.326,502.062 L649.126,515.779 L660.233,531.46 L708.576,531.46 L676.564,495.529 L676.564,495.529 Z" id="Fill-10" fill="#1A1918" sketch:type="MSShapeGroup"></path>
            <path d="M143.848,481.313 C141.924,482.54 140.116,483.216 134.048,483.275 L127.516,483.275 L127.516,465.64 L134.048,465.64 C138.538,465.613 141.351,466.029 143.729,467.87 C145.596,469.312 147.113,471.513 147.113,474.779 C147.113,477.394 145.986,479.716 143.848,481.313 L143.848,481.313 Z M164.753,495.69 C171.288,494.378 177.168,492.423 181.085,488.497 C185.661,484.579 187.619,479.358 187.619,472.823 C187.619,463.024 183.702,455.832 175.209,450.61 C167.369,445.382 154.956,442.767 139.275,442.767 L86.36,442.767 L86.36,531.62 L127.516,531.62 L127.516,502.223 L137.315,515.939 L148.422,531.62 L196.768,531.62 L164.753,495.69 L164.753,495.69 Z" id="Fill-11" fill="#1A1918" sketch:type="MSShapeGroup"></path>
            <path d="M0.5,-0.5 L792.5,-0.5 L792.5,611.5 L0.5,611.5 L0.5,-0.5 Z" id="Stroke-12" stroke="#FFFFFF" sketch:type="MSShapeGroup"></path>
        </g>
    </g>
</svg>