<?xml version="1.0" encoding="UTF-8" standalone="no"?>
<svg width="22px" height="22px" viewBox="0 0 22 22" version="1.1" xmlns="http://www.w3.org/2000/svg" xmlns:xlink="http://www.w3.org/1999/xlink" xmlns:sketch="http://www.bohemiancoding.com/sketch/ns">
    <title>search-icon</title>
    <description>Created with Sketch (http://www.bohemiancoding.com/sketch)</description>
    <defs></defs>
    <g id="Page-7" stroke="none" stroke-width="1" fill="none" fill-rule="evenodd" sketch:type="MSPage">
        <path d="M13.7500361,-5.76972961e-05 C9.19215374,-5.76972961e-05 5.50001442,3.69208162 5.50001442,8.24996394 C5.50001442,9.87959784 5.95834896,11.3819166 6.77316591,12.6550681 L0.534723625,18.8680473 C-0.178241208,19.5810122 -0.178241208,20.7523115 0.534723625,21.4652764 C0.891206041,21.8217588 1.34954058,22 1.83333814,22 C2.29167268,22 2.77547024,21.8217588 3.13195266,21.4652764 L9.34493192,15.2268341 C10.6180834,16.041651 12.1204022,16.4999856 13.7500361,16.4999856 C18.3079184,16.4999856 22.0000577,12.8078463 22.0000577,8.24996394 C22.0000577,3.69208162 18.3079184,-5.76972961e-05 13.7500361,-5.76972961e-05 Z M13.7500361,13.7499784 C10.7199355,13.7499784 8.25002164,11.2800645 8.25002164,8.24996394 C8.25002164,5.2198634 10.7199355,2.74994951 13.7500361,2.74994951 C16.7801366,2.74994951 19.2500505,5.2198634 19.2500505,8.24996394 C19.2500505,11.2800645 16.7801366,13.7499784 13.7500361,13.7499784 Z" id="Search---Normal" fill="#1999CE" sketch:type="MSShapeGroup" transform="translate(11.000029, 10.999971) rotate(-90.000000) translate(-11.000029, -10.999971) "></path>
    </g>
</svg>